# xmcd
#
# Track frame offsets: 
#        150
#        11644
#        26060
#        45366
#        73692
#        93003
#        114997
#        134380
#        150408
#        178817
#        187534
#        212408
#        232051
#        251936
#        262524
#
# Disc length: 3613 seconds
#
# Revision: 0
# Processed by: cddbd v1.5.2PL0 Copyright (c) Steve Scherf et al.
# Submitted via: ExactAudioCopy v1.0b3
#
DISCID=b70e1b0f
DTITLE=Christoph Kranig - On The Wings Of The Cranes
DYEAR=1996
DGENRE=Electronic
TTITLE0=Overture
TTITLE1=The Journey Of The Cranes
TTITLE2=Kindheitstraum
TTITLE3=Goodbye The Roads We'Ve Been So Many Times
TTITLE4=Book Of Brilliant Things
TTITLE5=There's A Hunger Still Unsatisfied
TTITLE6=Can't You Sense The Glory
TTITLE7=At A Higher Altitude
TTITLE8=Watching Out For A Beautiful Shore
TTITLE9=Salut Ciel Bleu
TTITLE10=Le Bonhuer (Vol. 3)
TTITLE11=With Friends Surrounded
TTITLE12=Closer To God
TTITLE13=Ferne Zukunft
TTITLE14=Underture
EXTD=
EXTT0=
EXTT1=
EXTT2=
EXTT3=
EXTT4=
EXTT5=
EXTT6=
EXTT7=
EXTT8=
EXTT9=
EXTT10=
EXTT11=
EXTT12=
EXTT13=
EXTT14=
PLAYORDER=
